<?xml version="1.0" encoding="utf-8"?>
<svg version="1.1" xmlns:xlink="http://www.w3.org/1999/xlink" width="104px" height="104px" xmlns="http://www.w3.org/2000/svg">
  <g transform="matrix(1 0 0 1 -941 -2300 )">
    <path d="M 942 2304  A 3 3 0 0 1 945 2301 L 1041 2301  A 3 3 0 0 1 1044 2304 L 1044 2400  A 3 3 0 0 1 1041 2403 L 945 2403  A 3 3 0 0 1 942 2400 L 942 2304  Z " fill-rule="nonzero" fill="#ffffff" stroke="none" />
    <path d="M 941.5 2304  A 3.5 3.5 0 0 1 945 2300.5 L 1041 2300.5  A 3.5 3.5 0 0 1 1044.5 2304 L 1044.5 2400  A 3.5 3.5 0 0 1 1041 2403.5 L 945 2403.5  A 3.5 3.5 0 0 1 941.5 2400 L 941.5 2304  Z " stroke-width="1" stroke-dasharray="9,4" stroke="#d9d9d9" fill="none" stroke-dashoffset="0.5" />
  </g>
</svg>