<?xml version="1.0" encoding="utf-8"?>
<svg version="1.1" xmlns:xlink="http://www.w3.org/1999/xlink" width="104px" height="104px" xmlns="http://www.w3.org/2000/svg">
  <g transform="matrix(1 0 0 1 -621 -742 )">
    <path d="M 622 746  A 3 3 0 0 1 625 743 L 721 743  A 3 3 0 0 1 724 746 L 724 842  A 3 3 0 0 1 721 845 L 625 845  A 3 3 0 0 1 622 842 L 622 746  Z " fill-rule="nonzero" fill="#000000" stroke="none" fill-opacity="0.0196078431372549" />
    <path d="M 621.5 746  A 3.5 3.5 0 0 1 625 742.5 L 721 742.5  A 3.5 3.5 0 0 1 724.5 746 L 724.5 842  A 3.5 3.5 0 0 1 721 845.5 L 625 845.5  A 3.5 3.5 0 0 1 621.5 842 L 621.5 746  Z " stroke-width="1" stroke-dasharray="9,4" stroke="#d9d9d9" fill="none" stroke-dashoffset="0.5" />
  </g>
</svg>